<svg xmlns="http://www.w3.org/2000/svg" width="93.685" height="70.954" viewBox="0 0 93.685 70.954">
  <g id="그룹_5963" data-name="그룹 5963" transform="translate(-2747.478 -7250.338)">
    <path id="패스_29129" data-name="패스 29129" d="M2835.707,7255.794h0a18.628,18.628,0,0,0-26.343,0l-6.263,6.264-6.264-6.264a18.627,18.627,0,0,0-26.343,26.343l6.264,6.264,24.2,24.2a3.031,3.031,0,0,0,4.286,0l24.2-24.2,6.263-6.264a18.629,18.629,0,0,0,0-26.343" fill="#00ccbe"/>
    <path id="패스_29130" data-name="패스 29130" d="M2821.146,7259.343h0a18.628,18.628,0,0,0-26.343,0l-6.263,6.263-6.264-6.263a18.627,18.627,0,0,0-26.343,26.343l6.264,6.263,26.343,26.343,26.343-26.343,6.263-6.263A18.629,18.629,0,0,0,2821.146,7259.343Z" fill="none" stroke="#221714" stroke-linecap="round" stroke-linejoin="round" stroke-width="6"/>
  </g>
</svg>